<?xml version="1.0" encoding="UTF-8"?>
<svg width="64px" height="64px" viewBox="0 0 64 64" version="1.1" xmlns="http://www.w3.org/2000/svg" xmlns:xlink="http://www.w3.org/1999/xlink">
    <title>meet_advisor64@1x</title>
    <g id="meet_advisor64" stroke="none" stroke-width="1" fill="none" fill-rule="evenodd">
        <polygon id="Path" fill-rule="nonzero" points="0 0 64 0 64 64 0 64"></polygon>
        <g id="meet_advisor_pictograms" transform="translate(14.000000, 13.000000)" stroke="#1E1E1E">
            <path d="M4.93181818,19.7037037 C3.76438636,19.7037037 2.81818182,20.6487778 2.81818182,21.8148148 C2.81818182,22.9808519 3.76438636,23.9259259 4.93181818,23.9259259 L7.04545455,23.9259259 L7.04545455,19.7037037 L4.93181818,19.7037037 Z M4.93181818,16.8888889 L7.04545455,16.8888889 L7.04545455,17.3631852 C8.71170455,18.1534444 9.86363636,19.8500741 9.86363636,21.8148148 C9.86363636,23.7795556 8.71170455,25.4761852 7.04545455,26.2664444 L7.04545455,26.7407407 L4.93181818,26.7407407 C2.20804545,26.7407407 0,24.5353333 0,21.8148148 C0,19.0942963 2.20804545,16.8888889 4.93181818,16.8888889 Z" id="Shape" fill="#FAEC20" fill-rule="nonzero"></path>
            <path d="M7.04545455,14.0740741 L31,14.0740741 L31,26.037037 C31,32.6448148 25.6384091,38 19.0227273,38 C12.4070455,38 7.04545455,32.6448148 7.04545455,26.037037 L7.04545455,14.0740741 Z" id="Path" fill="#FFFFFF" fill-rule="nonzero"></path>
            <g id="Group" stroke-linejoin="round" transform="translate(11.977273, 0.000000)">
                <path d="M1.40909091,4.22222222 C1.40909091,8.10877778 4.56334091,11.2592593 8.45454545,11.2592593 M0,0 C2.33486364,0 4.22727273,1.89014815 4.22727273,4.22222222 C4.22727273,6.5542963 6.11968182,8.44444444 8.45454545,8.44444444" id="Shape"></path>
            </g>
        </g>
    </g>
</svg>