<?xml version="1.0" encoding="UTF-8"?>
<svg width="64px" height="64px" viewBox="0 0 64 64" version="1.1" xmlns="http://www.w3.org/2000/svg" xmlns:xlink="http://www.w3.org/1999/xlink">
    <title>Tool64</title>
    <g id="Tool64" stroke="none" stroke-width="1" fill="none" fill-rule="evenodd">
        <g id="Tools-&amp;-Calculators">
            <g id="Pictogram" transform="translate(13.000000, 13.000000)" stroke="#1E1E1E">
                <path d="M0,19 L18.5,19 L18.5,37.5 L3,37.5 C1.34314575,37.5 2.02906125e-16,36.1568542 0,34.5 L0,19 L0,19 Z" id="Rectangle" fill="#FFFFFF"></path>
                <path d="M18.5,19 L37,19 L37,34.5 C37,36.1568542 35.6568542,37.5 34,37.5 L18.5,37.5 L18.5,37.5 L18.5,19 Z" id="Rectangle-Copy-2" fill="#FAEC20"></path>
                <path d="M3,0.5 L18.5,0.5 L18.5,0.5 L18.5,19 L0,19 L0,3.5 C-2.02906125e-16,1.84314575 1.34314575,0.5 3,0.5 Z" id="Rectangle-Copy" fill="#FFFFFF"></path>
                <path d="M18.5,0.5 L34,0.5 C35.6568542,0.5 37,1.84314575 37,3.5 L37,19 L37,19 L18.5,19 L18.5,0.5 Z" id="Rectangle-Copy-3" fill="#FFFFFF"></path>
                <g id="Equals" transform="translate(24.000000, 25.500000)" fill="#FFFFFF">
                    <line x1="0" y1="4.5" x2="8" y2="4.5" id="LineHorz-Copy"></line>
                    <line x1="0" y1="1.5" x2="8" y2="1.5" id="LineHorz-Copy-2"></line>
                </g>
                <g id="Plus" transform="translate(9.500000, 28.707107) rotate(45.000000) translate(-9.500000, -28.707107) translate(5.000000, 24.207107)" fill="#FFFFFF">
                    <line x1="0.353553391" y1="4.35355339" x2="8.35355339" y2="4.35355339" id="LineHorz"></line>
                    <line x1="4.35355339" y1="0.353553391" x2="4.35355339" y2="8.35355339" id="LineVert"></line>
                </g>
                <line x1="24" y1="9.5" x2="32" y2="9.5" id="Subtract" fill="#FFFFFF"></line>
                <g id="Plus" transform="translate(5.000000, 5.500000)" fill="#FFFFFF">
                    <line x1="0" y1="4" x2="8" y2="4" id="LineHorz"></line>
                    <line x1="4" y1="0" x2="4" y2="8" id="LineVert"></line>
                </g>
            </g>
            <rect id="Bounding-Box" x="0" y="0" width="64" height="64"></rect>
        </g>
    </g>
</svg>