<?xml version="1.0" standalone="no"?>
<!DOCTYPE svg PUBLIC "-//W3C//DTD SVG 20010904//EN"
 "http://www.w3.org/TR/2001/REC-SVG-20010904/DTD/svg10.dtd">
<svg version="1.0" xmlns="http://www.w3.org/2000/svg"
 width="128.000000pt" height="128.000000pt" viewBox="0 0 128.000000 128.000000"
 preserveAspectRatio="xMidYMid meet">

<g transform="translate(0.000000,128.000000) scale(0.100000,-0.100000)"
fill="#000000" stroke="none">
<path d="M276 999 l-26 -20 0 -335 0 -335 25 -24 24 -25 331 0 331 0 24 25 25
24 0 329 c0 318 -1 330 -21 356 l-20 26 -333 0 c-322 0 -334 -1 -360 -21z
m344 -174 l0 -175 -175 0 -175 0 0 157 c0 132 3 159 17 175 14 16 34 18 175
18 l158 0 0 -175z m352 158 c16 -14 18 -34 18 -175 l0 -158 -175 0 -175 0 0
175 0 175 157 0 c132 0 159 -3 175 -17z m-352 -528 l0 -175 -157 0 c-132 0
-159 3 -175 17 -16 14 -18 34 -18 175 l0 158 175 0 175 0 0 -175z m370 18 c0
-132 -3 -159 -17 -175 -14 -16 -34 -18 -175 -18 l-158 0 0 175 0 175 175 0
175 0 0 -157z"/>
<path d="M430 875 c0 -33 -2 -35 -35 -35 -19 0 -35 -4 -35 -10 0 -5 16 -10 35
-10 33 0 35 -2 35 -35 0 -19 5 -35 10 -35 6 0 10 16 10 35 0 33 2 35 35 35 19
0 35 5 35 10 0 6 -16 10 -35 10 -33 0 -35 2 -35 35 0 19 -4 35 -10 35 -5 0
-10 -16 -10 -35z"/>
<path d="M740 830 c0 -6 33 -10 80 -10 47 0 80 4 80 10 0 6 -33 10 -80 10 -47
0 -80 -4 -80 -10z"/>
<path d="M390 503 c0 -4 10 -17 22 -30 l21 -23 -23 -25 c-31 -32 -17 -46 15
-15 l25 23 25 -23 c32 -31 46 -17 15 15 l-23 25 23 25 c31 32 17 46 -15 15
l-25 -23 -23 21 c-24 22 -37 28 -37 15z"/>
<path d="M740 480 c0 -6 33 -10 80 -10 47 0 80 4 80 10 0 6 -33 10 -80 10 -47
0 -80 -4 -80 -10z"/>
<path d="M740 420 c0 -6 33 -10 80 -10 47 0 80 4 80 10 0 6 -33 10 -80 10 -47
0 -80 -4 -80 -10z"/>
</g>
</svg>
