<?xml version="1.0" encoding="UTF-8"?>
<svg width="64px" height="64px" viewBox="0 0 64 64" version="1.1" xmlns="http://www.w3.org/2000/svg" xmlns:xlink="http://www.w3.org/1999/xlink">
    <title>Help64</title>
    <g id="Help64" stroke="none" stroke-width="1" fill="none" fill-rule="evenodd">
        <g id="Help">
            <rect id="Bounding-box" x="0" y="0" width="64" height="64"></rect>
            <g id="Pictogram" transform="translate(12.500000, 12.500000)" stroke="#1E1E1E">
                <path d="M19.5,11.1428571 C24.1152321,11.1428571 27.8571429,14.8847679 27.8571429,19.5 L39,19.5 C39,8.73042857 30.2695714,0 19.5,0 L19.5,11.1428571 L19.5,11.1428571 Z" id="Stroke-3" fill="#FAEC20"></path>
                <path d="M11.1428571,19.5 C11.1428571,14.8847679 14.8847679,11.1428571 19.5,11.1428571 L19.5,0 C8.73042857,0 0,8.73042857 0,19.5 L11.1428571,19.5 L11.1428571,19.5 Z" id="Stroke-7" fill="#FFFFFF"></path>
                <path d="M19.5,27.8571429 C14.8847679,27.8571429 11.1428571,24.1152321 11.1428571,19.5 L0,19.5 C0,30.2695714 8.73042857,39 19.5,39 L19.5,27.8571429 L19.5,27.8571429 Z" id="Stroke-11" fill="#FAEC20"></path>
                <path d="M27.8571429,19.5 C27.8571429,24.1152321 24.1152321,27.8571429 19.5,27.8571429 L19.5,39 C30.2695714,39 39,30.2695714 39,19.5 L27.8571429,19.5 L27.8571429,19.5 Z" id="Stroke-15" fill="#FFFFFF"></path>
            </g>
        </g>
    </g>
</svg>