<?xml version="1.0" encoding="UTF-8"?>
<svg width="64px" height="64px" viewBox="0 0 64 64" version="1.1" xmlns="http://www.w3.org/2000/svg" xmlns:xlink="http://www.w3.org/1999/xlink">
    <title>Handshake64</title>
    <g id="Handshake64" stroke="none" stroke-width="1" fill="none" fill-rule="evenodd">
        <g id="Handshake" stroke="#1E1E1E" transform="translate(8.000000, 14.000000)">
            <path d="M20.6382307,8.10167725 L24.8299397,12.02892 L32.4117756,24.4580606 C34.9897813,27.0071058 36.5971558,28.6785075 37.2338989,29.4722656 C37.3454834,31.6561523 35.7119995,31.9870117 34.6932373,31.7592773 C33.6324463,30.9258626 31.6418819,29.0728464 28.721544,26.2002285 C32.0918005,29.3197376 34.1474447,31.2711344 34.8884766,32.0544189 C34.6932373,33.8282227 33.921814,34.9697885 31.9950684,34.3802368 C31.4216146,33.9036912 29.51789,32.2021846 26.2838947,29.2757168 C28.763699,31.6259063 30.3364746,33.0510254 31.0022217,33.5510742 C31.96875,35.4206177 29.999707,36.2699219 29.1137451,35.9636353 C28.2578613,35.4044149 26.3950466,33.9029277 23.525301,31.4591739 C26.280627,33.9021221 27.7295094,35.2052368 27.8719482,35.3685181 C28.797522,36.6680542 27.4712646,38.4005005 25.8271729,37.6352539 C24.5181478,36.6967448 22.9249919,35.3353516 21.0477051,33.5510742 C14.6652104,27.9763635 11.3650015,24.8406226 11.1470783,24.1438516 C10.9291552,23.4470806 10.9291552,21.3916766 11.1470783,17.9776396 L20.6382307,8.10167725 Z" id="Path-31" fill="#FFFFFF" stroke-linejoin="round"></path>
            <path d="M28.2384358,8.90820706 L19.711717,16.3281582 C18.0691649,17.6902526 17.7978173,18.9791361 18.897674,20.1948086 C19.9975308,21.4104812 22.0825536,20.5343484 25.1527424,17.5664102 L35.9503596,27.8601114 C38.0221695,26.4982734 39.0580744,25.3308483 39.0580744,24.357836 C39.0580744,23.3848236 39.1077391,21.9025092 39.2070686,19.9108926 L28.2384358,8.90820706 Z" id="Path-30" fill="#FFFFFF"></path>
            <rect id="Rectangle" fill="#FAEC20" transform="translate(11.440000, 11.440000) rotate(-45.000000) translate(-11.440000, -11.440000) " x="0.88" y="7.04" width="21.12" height="8.8" rx="0.88"></rect>
            <rect id="Rectangle-Copy-4" fill="#FAEC20" transform="translate(37.840000, 12.320000) rotate(45.000000) translate(-37.840000, -12.320000) " x="27.28" y="7.92" width="21.12" height="8.8" rx="0.88"></rect>
        </g>
    </g>
</svg>