<?xml version="1.0" encoding="UTF-8"?>
<svg width="22px" height="22px" viewBox="0 0 22 22" version="1.1" xmlns="http://www.w3.org/2000/svg" xmlns:xlink="http://www.w3.org/1999/xlink">
    <title>Facebook icon</title>
    <g id="New-Commbank-Footer" stroke="none" stroke-width="1" fill="none" fill-rule="evenodd">
        <g id="md---768---977---New-footer" transform="translate(-504.000000, -384.000000)">
            <g id="Facebook-icon" transform="translate(504.000000, 384.000000)">
                <path d="M11,22 C17.0749647,22 22,17.0756115 22,11 C22,4.92568203 17.0749647,0 11,0 C4.92503528,0 0,4.92568203 0,11 C0,17.0756115 4.92503528,22 11,22" id="Fill-1" fill="#547BBC"></path>
                <path d="M8.25,9.01375333 L9.34816504,9.01375333 L9.34816504,7.94619698 C9.34816504,7.47582254 9.36003372,6.74933452 9.70235138,6.30019876 C10.0621597,5.82420231 10.5568962,5.5 11.4070683,5.5 C12.7925803,5.5 13.3760195,5.69801952 13.3760195,5.69801952 L13.1017906,7.32527773 C13.1017906,7.32527773 12.6439095,7.19284827 12.2166371,7.19284827 C11.7899894,7.19284827 11.4070683,7.34589175 11.4070683,7.77316415 L11.4070683,9.01375333 L13.1586353,9.01375333 L13.0368252,10.6029068 L11.4070683,10.6029068 L11.4070683,16.1249654 L9.34816504,16.1249654 L9.34816504,10.6029068 L8.25,10.6029068 L8.25,9.01375333 Z" id="Fill-4" fill="#FEFEFE"></path>
            </g>
        </g>
    </g>
</svg>