<?xml version="1.0" encoding="UTF-8"?><svg id="Layer_1" xmlns="http://www.w3.org/2000/svg" viewBox="0 0 128 128"><defs><style>.cls-1,.cls-2,.cls-3{stroke:#1e1e1e;stroke-miterlimit:10;stroke-width:1.8px;}.cls-1,.cls-3{fill:#fff;}.cls-2{fill:#faec20;}.cls-3{fill-rule:evenodd;}</style></defs><g><path class="cls-1" d="M50.12,46.12v30.57c0,.69,.56,1.24,1.24,1.24h43.47c.69,0,1.24-.56,1.24-1.24v-30.57c0-.36-.16-.71-.43-.94l-21.73-18.71c-.47-.4-1.15-.4-1.62,0l-21.73,18.71c-.27,.24-.43,.58-.43,.94h0Z"/><path class="cls-1" d="M79.93,50.61h8.69c.69,0,1.24,.56,1.24,1.24v8.69c0,.69-.56,1.24-1.24,1.24h-8.69c-.69,0-1.24-.56-1.24-1.24v-8.69c0-.69,.56-1.24,1.24-1.24h0Z"/></g><g><path class="cls-3" d="M34.23,92.93s22.95,8.9,35.35,8.9,42.42-19.59,42.42-19.59c0,0-.82-10.69-10.61-10.69-2.45,0-17.68,3.56-17.68,3.56,0,0,.27-7.12-7.07-7.12h-8.84s-2.82-10.71-14.14-8.9c0,0-18.76,3.85-17.46,3.85-2.45,0-1.98,5.11-1.98,5.11v24.88Z"/><rect class="cls-2" x="16" y="56.36" width="20.21" height="42.95"/><path class="cls-1" d="M58.05,84.15h20.37s5.3,.54,5.3-9.03"/></g></svg>