<?xml version="1.0" encoding="UTF-8"?>
<svg width="64px" height="64px" viewBox="0 0 64 64" version="1.1" xmlns="http://www.w3.org/2000/svg" xmlns:xlink="http://www.w3.org/1999/xlink">
    <title>business-insights64@1x</title>
    <g id="business-insights64" stroke="none" stroke-width="1" fill="none" fill-rule="evenodd">
        <g id="business-insights_pictograms">
            <polygon id="Path" fill-rule="nonzero" points="0 0 64 0 64 64 0 64"></polygon>
            <g id="Group" transform="translate(9.343750, 17.187500)" stroke="#1E1E1E">
                <polyline id="Path" stroke-linecap="square" points="3.90625 25.75 16.40625 10.90625 28.90625 20.28125 41.40625 3.87109375"></polyline>
                <path d="M37.5,3.90625 C37.5,1.75234375 39.2523438,0 41.40625,0 C43.559375,0 45.3125,1.75234375 45.3125,3.90625 C45.3125,6.059375 43.559375,7.8125 41.40625,7.8125 C39.2523438,7.8125 37.5,6.059375 37.5,3.90625 Z" id="Path" fill="#FAEC20" fill-rule="nonzero"></path>
                <path d="M25,20.28125 C25,18.1273438 26.7523438,16.375 28.90625,16.375 C31.0601562,16.375 32.8125,18.1273438 32.8125,20.28125 C32.8125,22.434375 31.0601562,24.1875 28.90625,24.1875 C26.7523438,24.1875 25,22.434375 25,20.28125 Z M12.5,10.90625 C12.5,8.75234375 14.2523438,7 16.40625,7 C18.5601563,7 20.3125,8.75234375 20.3125,10.90625 C20.3125,13.0601563 18.5601563,14.8125 16.40625,14.8125 C14.2523438,14.8125 12.5,13.0601563 12.5,10.90625 Z M3.90625,29.65625 C1.75234375,29.65625 0,27.9039063 0,25.75 C0,23.5960938 1.75234375,21.84375 3.90625,21.84375 C6.06015625,21.84375 7.8125,23.5960938 7.8125,25.75 C7.8125,27.9039063 6.06015625,29.65625 3.90625,29.65625" id="Shape" fill="#FFFFFF" fill-rule="nonzero"></path>
            </g>
        </g>
    </g>
</svg>