<?xml version="1.0" encoding="UTF-8"?>
<svg width="64px" height="64px" viewBox="0 0 64 64" version="1.1" xmlns="http://www.w3.org/2000/svg" xmlns:xlink="http://www.w3.org/1999/xlink">
    <title>Insurance64</title>
    <g id="Insurance64" stroke="none" stroke-width="1" fill="none" fill-rule="evenodd">
        <g id="Insurance">
            <g id="Pictogram" transform="translate(13.000000, 12.000000)" stroke="#1E1E1E">
                <path d="M0.5,21.5 L36.5,21.5 C34.5747459,10.1666667 28.578938,4.5 18.5125764,4.5 C8.44621476,4.5 2.44202263,10.1666667 0.5,21.5 Z" id="Path-4" fill="#FFFFFF"></path>
                <path d="M9.5,21.5 L27.5,21.5 C26.5373729,10.1666667 23.539469,4.5 18.5062882,4.5 C13.4731074,4.5 10.4710113,10.1666667 9.5,21.5 Z" id="Path-4" fill="#FAEC20"></path>
                <line x1="18.5" y1="0" x2="18.5" y2="4" id="Path-5" stroke-linecap="round" stroke-linejoin="round"></line>
                <path d="M18.5014194,21.5 L18.5,35.9537613 C18.5521165,38.3179204 19.5651456,39.5 21.5390873,39.5 C23.5130291,39.5 24.5,38.3179204 24.5,35.9537613" id="Path-6" stroke-linecap="round" stroke-linejoin="round"></path>
            </g>
            <rect id="Bounding-box" x="0" y="0" width="64" height="64"></rect>
        </g>
    </g>
</svg>