<?xml version="1.0" encoding="UTF-8"?>
<svg width="64px" height="64px" viewBox="0 0 64 64" version="1.1" xmlns="http://www.w3.org/2000/svg" xmlns:xlink="http://www.w3.org/1999/xlink">
    <title>Travel64</title>
    <g id="Travel64" stroke="none" stroke-width="1" fill="none" fill-rule="evenodd">
        <g id="Travel">
            <rect id="Bounding-Box" x="0" y="0" width="64" height="64"></rect>
            <g id="Pictogram" transform="translate(19.000000, 12.000000)" stroke="#1E1E1E">
                <line x1="7.38181818" y1="38.8818356" x2="9.61818182" y2="38.8818007" id="LineHorz-Copy-4" fill="#FFFFFF" transform="translate(8.500000, 38.881818) rotate(90.000000) translate(-8.500000, -38.881818) "></line>
                <line x1="16.3818356" y1="38.8818182" x2="18.6181993" y2="38.8818182" id="LineHorz-Copy-5" fill="#FFFFFF" transform="translate(17.500017, 38.881818) rotate(90.000000) translate(-17.500017, -38.881818) "></line>
                <rect id="Rectangle" fill="#FFFFFF" x="8.5" y="0.5" width="9" height="4"></rect>
                <path d="M3.5,3.5 L22.5,3.5 C24.1568542,3.5 25.5,4.84314575 25.5,6.5 L25.5,34.5 C25.5,36.1568542 24.1568542,37.5 22.5,37.5 L3.5,37.5 C1.84314575,37.5 0.5,36.1568542 0.5,34.5 L0.5,6.5 C0.5,4.84314575 1.84314575,3.5 3.5,3.5 Z" id="Rectangle" fill="#FFFFFF"></path>
                <path d="M0.5,31.5 L25.5,31.5 L25.5,34.5 C25.5,36.1568542 24.1568542,37.5 22.5,37.5 L3.5,37.5 C1.84314575,37.5 0.5,36.1568542 0.5,34.5 L0.5,31.5 L0.5,31.5 Z" id="Rectangle" fill="#FAEC20"></path>
                <line x1="1.00841751" y1="18.1363636" x2="15.9175084" y2="18.1363636" id="LineHorz-Copy-2" fill="#FFFFFF" transform="translate(8.462963, 18.136364) rotate(90.000000) translate(-8.462963, -18.136364) "></line>
                <line x1="10.1565657" y1="18.1363523" x2="25.0656566" y2="18.1363749" id="LineHorz-Copy-3" fill="#FFFFFF" transform="translate(17.611111, 18.136364) rotate(90.000000) translate(-17.611111, -18.136364) "></line>
            </g>
        </g>
    </g>
</svg>