<?xml version="1.0" encoding="UTF-8"?>
<svg width="22px" height="22px" viewBox="0 0 22 22" version="1.1" xmlns="http://www.w3.org/2000/svg" xmlns:xlink="http://www.w3.org/1999/xlink">
    <title>Linkedin icon</title>
    <g id="New-Commbank-Footer" stroke="none" stroke-width="1" fill="none" fill-rule="evenodd">
        <g id="md---768---977---New-footer" transform="translate(-504.000000, -416.000000)">
            <g id="Linkedin-icon" transform="translate(504.000000, 416.000000)">
                <path d="M11,22 C17.0762582,22 22,17.0749647 22,11 C22,4.92503528 17.0762582,0 11,0 C4.92503528,0 0,4.92503528 0,11 C0,17.0749647 4.92503528,22 11,22" id="Fill-1" fill="#1485C7"></path>
                <path d="M16.7614269,15.8404107 L14.272498,15.8404107 L14.272498,12.2053428 C14.272498,11.2538688 13.8831683,10.6043239 13.0270403,10.6043239 C12.3721984,10.6043239 12.0080295,11.0426508 11.8385254,11.4650867 C11.7749614,11.6167134 11.7848933,11.8279314 11.7848933,12.0391494 L11.7848933,15.8404107 L9.31913868,15.8404107 C9.31913868,15.8404107 9.35092069,9.40124221 9.31913868,8.81592346 L11.7848933,8.81592346 L11.7848933,9.91836207 C11.9305608,9.43633485 12.7184899,8.74838668 13.976528,8.74838668 C15.535833,8.74838668 16.7614269,9.75878987 16.7614269,11.9345336 L16.7614269,15.8404107 Z M6.82557483,7.9372832 L6.80968383,7.9372832 C6.01513348,7.9372832 5.5,7.40029958 5.5,6.71963479 C5.5,6.02572748 6.03102448,5.5 6.84080371,5.5 C7.65058294,5.5 8.14850116,6.02440323 8.16439217,6.71764841 C8.16439217,7.39831321 7.65058294,7.9372832 6.82557483,7.9372832 L6.82557483,7.9372832 Z M5.78338962,15.8404107 L7.97899709,15.8404107 L7.97899709,8.81592346 L5.78338962,8.81592346 L5.78338962,15.8404107 Z" id="Fill-4" fill="#FEFEFE"></path>
            </g>
        </g>
    </g>
</svg>