<?xml version="1.0" encoding="UTF-8"?>
<svg width="64px" height="64px" viewBox="0 0 64 64" version="1.1" xmlns="http://www.w3.org/2000/svg" xmlns:xlink="http://www.w3.org/1999/xlink">
    <title>Valuable64</title>
    <defs>
        <path d="M9.2992436,0.5 L18.8947368,0.5 L28.4902301,0.5 C28.7962227,0.5 29.0853737,0.640095632 29.2750173,0.880234718 L36.4087228,9.91339802 C36.694092,10.274751 36.6958331,10.7842556 36.4129403,11.1475505 L19.6837415,32.6314205 C19.3444248,33.0671757 18.7161048,33.1453546 18.2803496,32.8060379 C18.2151529,32.7552701 18.1565,32.6966172 18.1057322,32.6314205 L1.37653343,11.1475505 C1.09364062,10.7842556 1.09538172,10.274751 1.38075084,9.91339802 L8.51445637,0.880234718 C8.70409996,0.640095632 8.993251,0.5 9.2992436,0.5 Z" id="path-1"></path>
    </defs>
    <g id="Valuable64" stroke="none" stroke-width="1" fill="none" fill-rule="evenodd">
        <g id="Valuable">
            <rect id="Bounding-Box" x="0" y="0" width="64" height="64"></rect>
            <g id="pictogram" transform="translate(13.105263, 17.000000)">
                <path d="M9.78964024,0.5 L18.8947368,0.5 L27.9998334,0.5 C28.6151633,0.5 29.196241,0.783247349 29.5752959,1.26796186 L35.9490405,9.41835523 C36.5068178,10.1316101 36.5158261,11.1306237 35.9710016,11.853821 L20.506417,32.3814306 C19.8417823,33.2636633 18.5877985,33.4400613 17.7055658,32.7754266 C17.5569403,32.6634587 17.424668,32.5312969 17.312576,32.382765 L1.82029654,11.854109 C1.27449362,11.1308713 1.28309142,10.1310531 1.84125147,9.41730883 L8.21417776,1.26796186 C8.59323265,0.783247349 9.17431043,0.5 9.78964024,0.5 Z" id="diamond-white" stroke="#1E1E1E" fill="#FFFFFF" stroke-linecap="round" stroke-linejoin="round"></path>
                <g id="Path-2">
                    <mask id="mask-2" fill="white">
                        <use xlink:href="#path-1"></use>
                    </mask>
                    <g id="Mask"></g>
                    <polygon stroke="#1E1E1E" fill="#FAEC20" mask="url(#mask-2)" points="25.8630362 10.3659696 36.8947368 10.3659696 17.8947368 36.7548585"></polygon>
                </g>
                <path d="M19.45359,0.796149225 L25.5044407,9.71319237 C25.8503924,10.2230159 25.9420566,10.863835 25.7529064,11.4502008 L18.8947368,32.7105263 L18.8947368,32.7105263 L12.0365673,11.4502008 C11.8474171,10.863835 11.9390813,10.2230159 12.285033,9.71319237 L18.3358837,0.796149225 C18.461577,0.610916967 18.6708847,0.5 18.8947368,0.5 C19.118589,0.5 19.3278967,0.610916967 19.45359,0.796149225 Z" id="diamond-inside" stroke="#1E1E1E" fill="#FFFFFF" stroke-linecap="round" stroke-linejoin="round"></path>
                <line x1="1.89473684" y1="10.5" x2="35.8947368" y2="10.5" id="line" stroke="#1E1E1E" stroke-linecap="round" stroke-linejoin="round"></line>
            </g>
        </g>
    </g>
</svg>