<?xml version="1.0" encoding="UTF-8"?>
<svg width="64px" height="64px" viewBox="0 0 64 64" version="1.1" xmlns="http://www.w3.org/2000/svg" xmlns:xlink="http://www.w3.org/1999/xlink">
    <title>Feedback64</title>
    <g id="Feedback64" stroke="none" stroke-width="1" fill="none" fill-rule="evenodd">
        <g id="Feedback">
            <rect id="bounding-box" fill-rule="nonzero" x="0" y="0" width="64" height="64"></rect>
            <g id="Speech-bubble" transform="translate(10.000000, 16.000000)" stroke="#1E1E1E">
                <path d="M42.5,11.5 L42.5,25.5 C42.5,27.1568542 41.1568542,28.5 39.5,28.5 L36.5,28.5 L36.5,28.5 L36.5,32.5 L31.5909091,28.5 L15.5,28.5 C13.8431458,28.5 12.5,27.1568542 12.5,25.5 L12.5,11.5 C12.5,9.84314575 13.8431458,8.5 15.5,8.5 L39.5,8.5 C41.1568542,8.5 42.5,9.84314575 42.5,11.5 Z" id="Speech-bubble-recieve" fill="#FAEC20"></path>
                <path d="M0.5,3.49420208 C0.5,1.84054993 1.84731857,0.5 3.50001915,0.5 L27.4999809,0.5 C29.1568457,0.5 30.5,1.84331197 30.5,3.49420208 L30.5,17.5057979 C30.5,19.1594501 29.1575643,20.5 27.4960443,20.5 L11.4090909,20.5 L6.55735896,24.5 L6.55735896,20.5 L3.49318786,20.5 C1.84009585,20.5 0.5,19.156688 0.5,17.5057979 L0.5,3.49420208 Z" fill="#FFFFFF"></path>
            </g>
        </g>
    </g>
</svg>